<svg xmlns="http://www.w3.org/2000/svg" viewBox="0 0 100 100">
  <rect width="100" height="100" rx="22" fill="#0066FF"/>
  <circle cx="32" cy="23" r="11" fill="white"/>
  <circle cx="68" cy="23" r="11" fill="white"/>
  <path fill="white" fill-rule="evenodd" d="
    M 13 34 C 13 21 51 21 51 34
    L 51 67 C 51 80 43 88 32 88 C 21 88 13 80 13 67 Z
    M 24 46 C 24 33 44 33 44 46
    L 44 67 C 44 74 39 79 32 79 C 25 79 24 74 24 67 Z
  "/>
  <path fill="white" fill-rule="evenodd" d="
    M 87 34 C 87 21 49 21 49 34
    L 49 67 C 49 80 57 88 68 88 C 79 88 87 80 87 67 Z
    M 76 46 C 76 33 56 33 56 46
    L 56 67 C 56 74 61 79 68 79 C 75 79 76 74 76 67 Z
  "/>
</svg>
